<svg viewBox="0 0 369.895 92.105" xmlns="http://www.w3.org/2000/svg">
  <switch xmlns="http://www.w3.org/2000/svg" transform="translate(-5.629 -5.629) scale(1.02339)" fill="#f76b8a">
      <path d="M81.2 5.5H19.8c-7.9 0-14.3 6.4-14.3 14.3v61.4c0 7.9 6.4 14.3 14.3 14.3h75.7V19.8c0-7.9-6.4-14.3-14.3-14.3zm10.5 66.4L72 91.7H19.8C14 91.7 9.3 87 9.3 81.2V19.8C9.3 14 14 9.3 19.8 9.3h61.4c5.8 0 10.5 4.7 10.5 10.5v52.1zM67.4 25.8H33.6c-4.3 0-7.8 3.5-7.8 7.8v33.8c0 4.3 3.5 7.8 7.8 7.8h26.5c.5 0 1-.4 1-1 0-.5-.4-1-1-1H33.6c-3.2 0-5.9-2.6-5.9-5.9V33.6c0-3.2 2.6-5.9 5.9-5.9h33.8c3.2 0 5.9 2.6 5.9 5.9v15.9h-5.2V38.2c0-2.7-2.2-5-5-5H38.5c-2.7 0-5 2.2-5 5v24.6c0 2.7 2.2 5 5 5h24.6c2.7 0 5-2.2 5-5V51.5h6.1c.5 0 1-.4 1-1V33.6c0-4.3-3.5-7.8-7.8-7.8zm-1.2 37c0 1.7-1.4 3-3 3H38.5c-1.7 0-3-1.4-3-3V38.2c0-1.7 1.4-3 3-3h24.6c1.7 0 3 1.4 3 3v24.6zM72 20.3H29c-4.8 0-8.7 3.9-8.7 8.7v43c0 4.8 3.9 8.7 8.7 8.7h33.5l18.2-18.2V29c0-4.8-3.9-8.7-8.7-8.7zm6.8 41.4L61.7 78.8H29c-3.7 0-6.8-3-6.8-6.8V29c0-3.7 3-6.8 6.8-6.8h43c3.7 0 6.8 3 6.8 6.8v32.7zm-2.2-47.8H24.4c-5.8 0-10.5 4.7-10.5 10.5v52.2c0 5.8 4.7 10.5 10.5 10.5h42.7l20-20V24.4c0-5.8-4.7-10.5-10.5-10.5zm8.6 52.4L66.3 85.2H24.4c-4.8 0-8.6-3.9-8.6-8.6V24.4c0-4.8 3.9-8.6 8.6-8.6h52.2c4.8 0 8.6 3.9 8.6 8.6v41.9z"/>
  </switch>
  <path d="M151.507 18v10.388h-27.151v12.985h23.53v9.602h-23.53V74.19H112V18h39.507zm25.734 14.402c6.506 0 11.647 1.98 15.425 5.942s5.666 9.142 5.666 15.542c0 6.454-1.928 11.634-5.784 15.543s-8.958 5.863-15.307 5.863c-6.453 0-11.569-1.98-15.346-5.941s-5.666-9.116-5.666-15.465c0-6.558 1.928-11.778 5.784-15.66s8.932-5.824 15.228-5.824zm-9.837 21.484c0 4.145.84 7.345 2.518 9.602s4.119 3.384 7.319 3.384c3.305 0 5.784-1.155 7.437-3.463s2.479-5.483 2.479-9.523c0-4.197-.853-7.424-2.558-9.68s-4.184-3.383-7.437-3.383c-3.148 0-5.56 1.128-7.24 3.384s-2.518 5.482-2.518 9.68zm61.935-21.484c.945 0 1.758.131 2.44.393v10.388c-1.207-.262-2.544-.393-4.014-.393-7.345 0-11.017 4.355-11.017 13.064V74.19h-11.175V33.504h10.624v7.555h.157c1.102-2.624 2.846-4.722 5.234-6.296s4.97-2.361 7.751-2.361zm30.3 0c5.928 0 9.89 2.256 11.883 6.768 3.095-4.512 7.214-6.768 12.355-6.768 5.09 0 8.828 1.285 11.215 3.856s3.58 6.112 3.58 10.624v27.309h-11.175V50.66c0-3.568-.537-6.034-1.613-7.398s-2.82-2.046-5.233-2.046c-4.985 0-7.477 3.41-7.477 10.23v22.745H262V50.188c0-3.463-.55-5.824-1.652-7.083s-2.807-1.889-5.116-1.889c-2.15 0-3.948.853-5.39 2.558s-2.165 3.948-2.165 6.728v23.689h-11.175V33.504h10.545v5.508h.158c3.095-4.407 7.24-6.61 12.434-6.61zM318.976 18v9.208h-11.175V18h11.175zm0 15.504V74.19h-11.175V33.504h11.175zm32.581-1.102c.944 0 1.758.131 2.44.393v10.388c-1.207-.262-2.545-.393-4.014-.393-7.345 0-11.018 4.355-11.018 13.064V74.19H327.79V33.504h10.624v7.555h.158c1.102-2.624 2.846-4.722 5.233-6.296s4.971-2.361 7.752-2.361zM369.895 18v9.208H358.72V18h11.175zm0 15.504V74.19H358.72V33.504h11.175z" fill="#00000"/>
</svg>
